<svg height="64" width="64" xmlns="http://www.w3.org/2000/svg">
<path d="m4 21.9v33.299219c0 1.5512 1.2495813 2.800781 2.8007812 2.800781h49.3988278c1.551201 0 2.754237-1.250279 2.800782-2.800781v-33.299219z" opacity=".2"/>
<path d="m4 20.9v33.299219c0 1.5512 1.2495813 2.800781 2.8007812 2.800781h49.3988278c1.551201 0 2.800782-1.249581 2.800782-2.800781v-33.299219z" fill="#e4e4e4"/>
<path d="m59.000391 22v-11.2c0-1.5512-1.248801-2.8-2.8-2.8h-49.400391c-1.5512 0-2.8 1.2488-2.8 2.8v11.2z" opacity=".2"/>
<path d="m59.000391 21v-11.2c0-1.5512-1.248801-2.8-2.8-2.8h-49.400391c-1.5512 0-2.8 1.2488-2.8 2.8v11.2z" fill="#f54b3e"/><g fill-rule="evenodd">
<path d="m33 24h8v8h-8z" opacity=".2"/><path d="m44 24h8v8h-8z" opacity=".2"/><path d="m22 24h8v8h-8z" opacity=".2"/>
<path d="m11 24h8v8h-8z" opacity=".2"/><circle cx="37" cy="40" opacity=".2" r="4"/><circle cx="37" cy="39" fill="#f54b3e" r="4"/><circle cx="14.5" cy="14.5" opacity=".2" r="2.5"/><circle cx="14.5" cy="13.5" fill="#fff" r="2.5"/><circle cx="48.5" cy="14.5" opacity=".2" r="2.5"/><circle cx="48.5" cy="13.5" fill="#fff" r="2.5"/><path d="m44 35h8v8h-8z" opacity=".2"/><path d="m22 35h8v8h-8z" opacity=".2"/><path d="m11 35h8v8h-8z" opacity=".2"/><path d="m33 46h8v8h-8z" opacity=".2"/><path d="m44 46h8v8h-8z" opacity=".2"/><path d="m22 46h8v8h-8z" opacity=".2"/><path d="m11 46h8v8h-8z" opacity=".2"/></g><path d="m6.8007812 7c-1.5511999 0-2.8007812 1.2495812-2.8007812 2.8007812v.9999998c0-1.5511998 1.2495813-2.800781 2.8007812-2.800781h49.4003908c1.551199 0 2.798828 1.2495813 2.798828 2.800781v-.9999998c0-1.5511999-1.247629-2.8007812-2.798828-2.8007812z" fill="#fff" opacity=".2"/></svg>